<?xml version="1.0" standalone="no"?>
<!DOCTYPE svg PUBLIC "-//W3C//DTD SVG 20010904//EN"
 "http://www.w3.org/TR/2001/REC-SVG-20010904/DTD/svg10.dtd">
<svg version="1.0" xmlns="http://www.w3.org/2000/svg"
 width="1964.000000pt" height="1733.000000pt" viewBox="0 0 1964.000000 1733.000000"
 preserveAspectRatio="xMidYMid meet">
<metadata>
Created by potrace 1.16, written by Peter Selinger 2001-2019
</metadata>
<g transform="translate(0.000000,1733.000000) scale(0.100000,-0.100000)"
fill="#000000" stroke="none">
<path d="M9173 17195 c1 -5 -8 -10 -20 -10 -11 0 -25 -3 -29 -7 -4 -5 7 -8 24
-8 18 0 32 5 32 10 0 16 116 11 162 -7 30 -12 43 -13 46 -5 5 17 32 15 54 -5
20 -18 52 -27 42 -12 -3 5 -10 6 -16 3 -7 -4 -8 -2 -4 5 6 9 13 9 30 -2 15
-10 27 -12 39 -6 13 8 15 6 10 -7 -4 -11 -3 -15 5 -10 6 3 13 2 16 -3 3 -5 54
-9 113 -10 63 -1 110 -6 114 -12 4 -6 41 -13 84 -16 83 -5 125 -16 125 -33 0
-5 -4 -10 -10 -10 -5 0 -10 4 -10 10 0 5 -35 9 -80 9 -43 0 -87 4 -97 9 -15 8
-282 9 -290 2 -2 -1 -8 -3 -15 -4 -27 -3 -17 -25 14 -29 18 -3 -34 -3 -117 -1
-82 2 -166 0 -185 -5 -29 -8 -24 -9 26 -4 36 3 64 1 67 -4 4 -6 -17 -12 -51
-15 -78 -8 -183 -38 -175 -51 4 -6 1 -7 -6 -3 -16 10 -61 -1 -61 -15 0 -23
-31 -41 -58 -35 -23 5 -24 5 -9 -5 10 -6 28 -9 40 -6 12 2 33 1 47 -2 23 -7
23 -8 -12 -15 -21 -4 -62 -18 -93 -31 -31 -14 -62 -25 -70 -25 -8 0 -15 -7
-15 -15 0 -8 -6 -15 -14 -15 -8 0 -24 -11 -37 -25 -13 -13 -34 -25 -46 -25
-12 0 -23 -4 -25 -8 -1 -5 -33 -23 -70 -41 -36 -17 -69 -38 -72 -46 -3 -8 -11
-15 -17 -15 -7 0 -20 -6 -28 -14 -14 -13 -19 -13 -36 0 -19 14 -19 16 -2 47
24 44 28 75 14 98 -17 27 -22 24 -37 -23 -16 -49 -56 -118 -69 -118 -5 0 -11
-9 -14 -21 -4 -15 -11 -19 -25 -15 -12 4 -19 1 -19 -8 0 -9 4 -13 9 -10 4 3 8
0 8 -5 0 -6 -8 -11 -17 -11 -14 0 -15 -2 -5 -9 11 -7 11 -9 -1 -14 -9 -3 -22
3 -31 16 -13 20 -15 20 -15 3 -1 -12 -6 -16 -16 -12 -8 3 -15 0 -15 -5 0 -6
-9 -9 -20 -6 -15 4 -20 0 -20 -14 0 -10 5 -19 10 -19 6 0 10 -5 10 -12 0 -6
-3 -8 -7 -5 -8 9 -43 -22 -43 -38 0 -15 -46 -65 -59 -65 -6 0 -9 -12 -7 -27 2
-16 1 -23 -1 -16 -2 7 -11 9 -18 6 -12 -4 -13 0 -4 26 6 17 15 28 21 25 13 -8
37 26 38 54 0 17 -5 22 -17 20 -11 -2 -17 -11 -15 -22 3 -16 -1 -18 -28 -12
-18 3 -39 6 -46 6 -8 0 -14 5 -14 11 0 7 10 9 25 7 30 -6 34 8 4 17 -28 9 -6
35 24 28 17 -4 19 -2 8 5 -12 9 -9 13 15 24 16 7 32 18 37 25 26 41 72 54 72
20 0 -9 5 -18 10 -19 14 -4 19 32 6 45 -15 15 -14 27 4 27 8 0 14 3 13 8 -4
11 28 53 35 45 4 -3 7 2 7 11 0 13 -5 16 -16 12 -15 -6 -15 -4 0 18 9 14 12
27 7 30 -5 3 -11 -3 -14 -14 -3 -14 -14 -20 -32 -20 -19 0 -26 -4 -22 -14 3
-8 -5 -18 -19 -25 -13 -6 -24 -15 -24 -20 0 -5 -8 -7 -17 -5 -10 3 -30 -6 -45
-21 -15 -14 -32 -25 -38 -25 -5 0 -10 -5 -10 -10 0 -6 -13 -16 -28 -23 -16 -7
-46 -31 -67 -55 -27 -29 -45 -40 -57 -36 -10 3 -18 0 -18 -6 0 -8 -10 -10 -25
-8 -17 4 -25 1 -25 -8 0 -8 8 -13 18 -12 42 3 82 -3 82 -13 0 -6 -7 -8 -16 -5
-9 3 -21 3 -27 -1 -18 -11 -70 -3 -89 14 -11 10 -18 12 -18 5 0 -7 -9 -12 -20
-12 -11 0 -23 -7 -26 -15 -4 -8 -12 -15 -19 -15 -7 0 -15 -5 -17 -11 -2 -6
-21 -12 -43 -14 -21 -2 -42 -11 -47 -19 -5 -9 -19 -16 -32 -16 -25 0 -61 -32
-49 -44 9 -9 -16 -26 -39 -26 -25 0 -22 17 3 23 15 4 20 11 16 21 -4 9 -1 16
6 16 7 0 -1 9 -18 20 -16 11 -38 17 -47 14 -10 -3 -25 -1 -34 4 -15 8 -14 12
9 27 14 9 31 14 36 11 5 -4 22 5 38 20 43 40 78 55 105 46 39 -14 82 7 46 21
-7 3 1 4 19 3 27 -3 33 1 42 25 5 16 15 29 20 29 6 0 11 7 11 15 0 8 5 15 10
15 6 0 10 -6 10 -14 0 -7 11 -16 24 -18 17 -3 23 0 22 11 -1 12 10 17 42 19
23 2 42 7 42 13 0 5 -7 9 -15 9 -8 0 -15 5 -15 10 0 6 9 10 20 10 11 0 29 9
41 21 11 11 23 18 26 15 4 -3 12 -1 20 6 7 6 17 8 21 4 4 -4 -1 -12 -11 -17
-9 -6 -17 -15 -17 -20 0 -6 15 0 32 13 18 12 39 21 47 20 14 -3 71 52 71 68 0
4 7 7 15 7 8 0 12 -4 9 -8 -2 -4 0 -10 6 -14 5 -3 10 3 10 15 0 11 12 32 26
45 15 14 23 25 19 25 -5 0 2 11 14 24 18 19 19 24 7 29 -8 3 -16 1 -18 -5 -2
-6 -13 -8 -26 -4 -12 4 -19 12 -16 18 4 6 9 5 15 -3 6 -11 19 -3 55 31 26 25
55 51 63 59 13 12 12 13 -9 7 -14 -4 -33 -10 -43 -13 -10 -2 -24 0 -31 6 -10
8 -21 7 -42 -4 -16 -8 -41 -15 -56 -15 -21 0 -28 -5 -28 -20 0 -16 7 -20 30
-20 66 0 8 -43 -62 -46 -45 -2 -48 -1 -48 22 0 32 -23 40 -47 17 -10 -10 -42
-38 -71 -63 -29 -24 -52 -48 -52 -53 0 -4 5 -5 10 -2 16 10 11 -1 -7 -16 -11
-10 -14 -10 -9 -1 4 7 1 12 -8 12 -9 0 -16 -7 -16 -15 0 -8 -6 -15 -13 -15 -8
0 -23 -8 -35 -17 -11 -10 -29 -25 -41 -33 -11 -7 -25 -27 -30 -42 -8 -23 -16
-28 -41 -28 -29 0 -30 1 -15 16 12 12 13 20 6 27 -12 12 -42 -17 -111 -110
-21 -29 -24 -31 -36 -15 -11 15 -14 14 -40 -12 -51 -51 -83 -56 -53 -8 9 15 7
24 -16 48 -26 28 -27 28 -41 9 -8 -10 -14 -24 -14 -29 -1 -6 -11 -19 -23 -28
-61 -47 -78 -66 -91 -103 l-15 -40 0 58 c-1 50 -4 58 -18 55 -26 -5 -31 -93
-7 -119 16 -18 16 -19 -2 -25 -11 -3 -28 -10 -39 -14 -11 -5 -30 -12 -42 -15
-19 -5 -23 -13 -23 -45 0 -24 -5 -40 -15 -44 -8 -3 -15 -18 -16 -33 0 -27 -1
-28 -11 -5 -16 31 -35 27 -43 -9 -6 -24 -3 -34 9 -41 21 -12 21 -76 0 -99 -16
-17 -17 -17 -34 3 -9 12 -22 18 -28 14 -16 -10 -15 -45 1 -51 16 -7 16 -118
-1 -137 -7 -8 -15 -36 -18 -62 -7 -51 -7 -50 -46 -60 -21 -5 -28 -2 -33 13 -3
11 0 29 6 40 10 15 10 25 1 46 -7 15 -18 25 -25 23 -14 -5 -23 -78 -9 -78 5 0
7 -14 4 -30 -2 -17 0 -36 5 -43 6 -6 13 -25 17 -41 5 -22 4 -27 -7 -23 -7 3
-14 0 -14 -6 0 -7 11 -12 24 -12 15 0 26 8 32 25 5 16 17 26 31 27 12 1 29 10
37 20 13 17 13 16 3 -4 -6 -13 -15 -23 -21 -23 -6 0 -8 -4 -5 -9 10 -16 -62
-63 -87 -57 -12 3 -16 3 -10 0 9 -4 10 -11 3 -25 -9 -16 -7 -19 13 -19 13 0
32 7 43 16 10 8 13 12 5 8 -10 -5 -12 -3 -7 5 5 7 15 10 23 7 9 -4 21 0 27 8
6 7 26 16 44 20 30 5 32 4 21 -15 -7 -14 -17 -19 -31 -16 -14 4 -22 0 -25 -13
-4 -13 -18 -20 -59 -25 -37 -4 -54 -11 -54 -21 0 -8 -10 -14 -21 -14 -18 0
-19 -3 -9 -15 14 -17 5 -35 -18 -35 -13 0 -13 2 4 15 18 14 18 14 -6 15 -20 0
-22 2 -10 10 8 5 11 10 6 10 -5 0 -3 7 4 15 10 12 9 16 -5 21 -23 9 -45 -13
-25 -27 12 -8 10 -9 -7 -4 -21 6 -23 3 -23 -38 0 -34 5 -48 21 -58 11 -8 25
-30 30 -49 8 -31 8 -30 5 18 -3 48 -2 52 17 46 11 -4 17 -2 14 3 -4 6 4 16 17
23 15 7 22 19 19 29 -2 10 3 23 11 30 11 9 16 10 16 2 0 -6 -4 -11 -10 -11 -5
0 -10 -7 -10 -15 0 -8 7 -15 15 -15 8 0 15 -5 15 -10 0 -7 6 -7 19 -1 10 6 21
7 25 4 12 -12 6 -41 -10 -47 -8 -3 -13 -2 -9 3 7 13 -56 26 -64 13 -3 -5 -16
-12 -28 -16 -24 -8 -31 -26 -10 -26 9 0 9 -2 0 -8 -7 -4 -12 -16 -12 -27 1
-11 -2 -30 -6 -42 -5 -16 -2 -23 14 -28 12 -3 19 -10 16 -15 -8 -13 11 -21 48
-22 17 -1 26 -3 20 -5 -15 -5 -17 -49 -3 -58 20 -12 9 -34 -17 -37 -27 -3 -28
-5 -25 -55 2 -28 -2 -61 -8 -73 -20 -38 -28 -122 -18 -190 6 -36 14 -69 18
-75 4 -5 11 -24 15 -42 3 -18 21 -45 39 -61 18 -16 36 -40 39 -53 3 -13 17
-54 30 -91 14 -37 22 -70 19 -73 -4 -3 -5 -36 -4 -72 3 -52 10 -75 33 -114 17
-27 27 -53 24 -59 -4 -6 1 -20 10 -30 10 -11 15 -26 12 -34 -4 -9 0 -22 8 -30
17 -17 20 -52 5 -61 -15 -10 8 -35 31 -35 17 0 18 -7 13 -91 -4 -89 -16 -119
-45 -119 -7 0 -10 -3 -7 -6 3 -3 22 -2 42 1 24 5 37 14 42 29 3 11 12 28 19
36 7 8 15 24 18 35 4 16 5 15 6 -5 0 -15 -3 -30 -8 -35 -15 -16 -17 -58 -3
-62 7 -3 12 4 12 16 0 12 5 21 10 21 11 0 13 -30 4 -54 -4 -10 -18 -16 -42
-16 -35 0 -35 0 -16 -21 10 -12 18 -23 16 -25 -6 -8 58 -105 85 -130 34 -32
40 -30 36 9 -2 17 0 26 3 20 3 -7 11 -13 17 -13 30 0 61 154 59 295 -1 55 -3
186 -5 290 -4 173 6 361 18 374 3 2 11 -1 17 -7 7 -7 16 -12 21 -12 5 0 1 7
-7 16 -21 20 -20 31 2 36 15 4 18 12 14 36 -4 30 24 72 48 72 6 0 5 8 -2 19
-9 15 -9 23 1 35 11 13 11 17 -1 21 -16 6 -17 22 -4 67 5 16 12 25 17 23 4 -3
6 8 4 24 -2 18 2 35 11 42 19 16 18 29 -3 30 -11 0 -13 3 -5 6 6 2 12 13 12
23 0 10 14 34 31 53 17 20 37 46 43 59 8 16 22 24 44 26 18 2 30 7 27 12 -12
20 100 162 124 158 9 -1 28 9 43 22 58 54 91 74 120 72 19 -2 27 1 23 8 -9 15
14 40 31 33 8 -3 14 0 14 5 0 6 12 12 26 14 19 2 33 14 46 38 19 36 19 36 88
25 14 -3 30 -12 35 -21 25 -42 67 -82 111 -105 40 -20 62 -24 133 -24 89 0
183 9 200 19 12 8 115 -12 119 -22 1 -5 16 -6 32 -4 19 3 30 0 30 -8 0 -8 9
-10 25 -6 14 4 25 2 25 -3 0 -19 85 -37 95 -20 4 5 12 6 18 2 7 -4 19 -8 27
-10 8 -1 22 -10 30 -20 10 -12 27 -18 50 -17 19 0 46 -6 60 -15 14 -9 34 -16
45 -16 11 0 20 -4 20 -8 0 -4 15 -17 33 -28 17 -12 32 -25 32 -30 0 -5 10 -9
22 -9 17 0 19 -3 10 -12 -16 -16 -15 -28 3 -28 20 0 19 -14 -1 -35 -22 -21
-10 -31 20 -17 28 12 66 5 66 -13 0 -7 8 -19 17 -26 15 -12 16 -12 11 8 -4 15
-2 20 7 17 7 -3 15 3 19 13 6 15 8 15 16 3 6 -8 10 -10 10 -5 0 6 18 11 40 11
39 1 40 1 24 -17 -10 -11 -14 -22 -11 -25 4 -4 9 1 13 10 3 9 15 16 25 16 14
0 19 -7 19 -26 0 -19 4 -25 14 -21 8 3 20 -1 27 -9 7 -9 21 -13 32 -10 13 3
17 0 13 -10 -4 -10 1 -14 17 -13 44 4 67 -1 67 -15 0 -7 19 -31 43 -53 l44
-40 -28 -19 c-22 -14 -26 -22 -18 -36 8 -16 5 -18 -23 -19 -18 0 -27 -3 -21
-6 9 -3 8 -11 -4 -30 -10 -14 -17 -44 -18 -67 0 -25 -5 -41 -12 -42 -7 -1 -18
-2 -24 -3 -7 -1 -5 -10 5 -26 14 -22 15 -25 1 -25 -8 0 -15 -9 -15 -20 0 -38
-38 -22 -59 25 -7 17 -16 24 -18 18 -8 -21 39 -93 60 -93 26 0 16 -23 -14 -31
-13 -4 -18 -7 -11 -8 8 -1 10 -9 6 -25 -4 -18 -1 -25 16 -29 12 -3 19 -10 16
-16 -4 -5 -1 -13 6 -17 7 -5 4 -10 -11 -16 l-23 -8 21 -26 c11 -15 19 -30 16
-34 -2 -4 7 -13 20 -20 17 -9 25 -22 25 -39 0 -14 7 -39 15 -55 8 -15 15 -41
15 -57 0 -25 -4 -29 -27 -29 -20 0 -24 -3 -14 -9 10 -6 5 -11 -20 -17 -19 -4
-42 -7 -51 -5 -10 1 -18 -3 -18 -8 0 -6 5 -11 10 -11 6 0 10 -5 10 -11 0 -6
-7 -8 -15 -5 -9 3 -18 -1 -21 -9 -5 -11 -11 -12 -24 -5 -27 15 -32 12 -21 -9
17 -30 -34 -38 -70 -12 -33 25 -54 27 -45 6 4 -10 -1 -15 -15 -15 -11 0 -31
-7 -44 -16 -23 -15 -25 -15 -25 1 0 9 -6 15 -12 12 -7 -2 -18 3 -25 12 -11 14
-12 14 -13 -3 0 -13 -5 -17 -20 -13 -23 6 -59 -16 -42 -27 14 -8 -21 -46 -43
-46 -8 0 -15 -4 -15 -9 0 -5 -13 -14 -30 -21 -16 -7 -30 -18 -30 -26 0 -7 -6
-17 -13 -21 -20 -13 -47 -60 -47 -83 0 -11 -9 -28 -20 -37 -13 -12 -18 -24
-14 -40 5 -18 1 -25 -20 -33 -29 -11 -33 -30 -11 -63 11 -18 12 -31 4 -61 -10
-38 -7 -167 6 -239 7 -37 -6 -82 -29 -98 -5 -4 -8 -20 -8 -35 0 -16 -5 -37
-10 -47 -5 -10 -10 -31 -10 -48 -1 -16 -5 -29 -10 -29 -4 0 -8 -9 -8 -20 0
-10 -6 -23 -12 -27 -7 -4 -18 -23 -25 -41 -6 -17 -8 -30 -3 -27 11 7 40 -51
40 -79 0 -12 4 -27 9 -35 6 -9 2 -20 -12 -34 l-20 -20 24 -18 c22 -17 22 -19
5 -19 -20 0 -20 0 -1 -14 11 -8 22 -13 25 -11 3 2 11 -3 18 -11 7 -8 8 -14 2
-14 -5 0 -10 -15 -10 -32 0 -25 -3 -29 -10 -18 -6 10 -10 11 -10 3 0 -7 -6
-13 -13 -13 -7 0 -12 -11 -12 -23 1 -13 -1 -50 -5 -81 -6 -56 -5 -58 22 -72
28 -14 38 -47 18 -59 -5 -3 -10 -13 -10 -21 0 -25 -58 -76 -85 -76 -14 0 -25
-4 -25 -9 0 -5 -10 -9 -22 -9 -12 0 -29 -6 -37 -14 -9 -8 -30 -17 -46 -19 -17
-2 -29 -9 -28 -15 1 -5 -7 -8 -19 -4 -14 3 -19 1 -14 -6 13 -22 -12 -12 -43
17 -16 15 -32 27 -34 25 -2 -2 -14 7 -27 21 -26 27 -62 32 -107 13 -15 -6 -34
-10 -41 -9 -8 1 -23 -5 -33 -15 -10 -9 -19 -13 -19 -8 0 5 -12 -4 -26 -19 -25
-27 -27 -54 -2 -29 7 7 17 12 22 12 20 -1 -28 -30 -49 -30 -14 0 -24 -10 -32
-30 -14 -36 0 -39 23 -5 9 14 20 25 25 25 17 0 9 -17 -21 -46 -16 -16 -30 -38
-30 -49 -1 -18 -2 -17 -15 5 l-13 25 -7 -26 c-5 -20 -11 -25 -26 -22 -23 6
-23 7 -3 41 l16 27 -21 -25 c-12 -15 -21 -19 -21 -11 0 11 -3 11 -15 1 -8 -7
-13 -16 -10 -20 3 -5 0 -12 -6 -15 -5 -4 -8 -13 -5 -21 3 -7 1 -16 -4 -19 -6
-4 -10 -1 -10 5 0 7 -7 10 -15 6 -22 -8 -18 7 6 27 28 24 21 29 -22 14 -40
-14 -99 -65 -99 -86 0 -8 -6 -11 -16 -7 -21 8 -68 -38 -60 -59 3 -8 -4 -32
-15 -52 -19 -33 -19 -38 -5 -49 9 -6 16 -16 16 -23 0 -6 5 -11 11 -11 5 0 7
-5 4 -10 -11 -18 3 -44 18 -32 22 18 96 25 113 11 12 -10 17 -10 23 0 6 9 17
7 46 -9 20 -11 40 -19 43 -16 3 3 11 1 19 -5 10 -9 13 -7 13 9 0 11 15 31 33
44 25 19 45 25 97 26 69 1 104 -7 185 -43 86 -39 178 -53 315 -50 115 3 127 2
148 -18 12 -11 22 -28 22 -38 0 -25 -46 -74 -53 -57 -3 7 -6 1 -6 -13 -1 -15
6 -29 14 -33 8 -3 15 -12 15 -19 0 -10 -14 -15 -47 -15 -25 -1 -49 -5 -52 -10
-3 -5 -24 -9 -46 -8 -46 1 -59 -8 -69 -47 -8 -34 -51 -39 -61 -7 -9 29 -24 25
-22 -6 2 -32 -15 -41 -37 -19 -27 27 -106 -14 -106 -56 0 -10 -16 -25 -39 -36
-34 -16 -39 -22 -34 -44 3 -15 0 -30 -6 -33 -15 -10 -14 -46 2 -46 6 0 19 -15
28 -33 9 -17 24 -34 35 -36 25 -4 54 -30 54 -48 0 -8 4 -12 9 -9 5 4 13 -8 16
-26 7 -30 8 -31 21 -13 14 18 14 18 27 0 10 -12 19 -15 28 -9 27 16 93 15 106
-2 7 -9 19 -14 27 -11 9 4 18 2 21 -3 4 -6 11 -10 16 -10 6 0 7 5 4 10 -3 6 1
10 9 10 9 0 19 13 23 31 l9 31 13 -26 c25 -46 71 -46 71 0 0 16 5 24 13 21 6
-2 11 -12 10 -21 0 -11 4 -15 13 -12 8 3 17 -1 20 -9 5 -12 9 -11 26 5 11 10
17 23 14 29 -13 20 15 21 54 2 40 -19 70 -19 70 0 0 5 9 1 20 -9 20 -17 24
-18 55 -21 17 -1 21 -31 4 -31 -5 0 -7 5 -4 10 3 6 1 10 -4 10 -6 0 -11 -4
-11 -10 0 -5 -1 -13 -2 -17 -2 -3 5 -7 15 -9 27 -4 32 -11 18 -27 -6 -9 -8
-27 -4 -47 4 -23 3 -31 -5 -26 -7 4 -14 -4 -18 -21 -3 -15 -13 -33 -21 -40 -8
-6 -14 -15 -14 -20 1 -4 -5 -9 -12 -9 -6 -1 -17 -2 -24 -3 -6 0 -25 -13 -42
-27 -17 -14 -31 -22 -31 -18 0 4 -8 0 -18 -9 -10 -10 -22 -14 -25 -11 -4 4
-12 2 -19 -4 -26 -21 -88 -18 -88 4 0 14 -3 14 -15 4 -9 -7 -18 -10 -22 -6 -3
3 -1 6 5 6 7 0 12 5 12 11 0 7 -10 9 -24 5 -14 -3 -28 -1 -31 4 -4 6 -11 7
-17 4 -6 -4 -6 2 1 15 7 11 8 21 4 21 -14 -1 -43 -27 -43 -39 0 -6 -4 -11 -10
-11 -5 0 -10 6 -10 14 0 23 -28 27 -35 5 -7 -21 -20 -25 -31 -7 -4 7 -3 8 4 4
8 -5 12 0 12 13 0 12 6 21 14 21 11 0 11 7 -1 43 -9 23 -16 61 -17 84 0 24 -4
43 -7 43 -13 0 -17 -45 -10 -92 4 -27 4 -48 0 -48 -4 0 -12 -15 -19 -34 -8
-26 -15 -33 -30 -29 -11 3 -22 14 -25 24 -9 26 -22 24 -50 -8 -19 -22 -24 -24
-25 -11 0 32 -18 28 -35 -8 -12 -25 -20 -33 -25 -24 -4 7 -13 9 -20 5 -10 -6
-12 -2 -8 13 6 23 -7 31 -15 10 -3 -10 -7 -10 -19 0 -13 10 -17 10 -21 0 -3
-11 -8 -11 -26 0 -12 7 -21 8 -21 2 0 -5 -7 -7 -16 -3 -17 6 -64 -40 -64 -62
0 -12 -8 -12 -77 -6 -7 1 -13 9 -13 18 0 16 -1 16 -17 1 -13 -13 -14 -20 -4
-31 13 -17 4 -50 -13 -44 -6 2 -13 16 -16 31 -5 25 -7 26 -25 12 -17 -12 -21
-12 -32 4 -10 14 -23 18 -49 16 -20 -2 -39 -7 -43 -12 -3 -5 -15 -16 -25 -24
-18 -14 -19 -14 -8 7 7 12 17 25 22 28 18 11 11 52 -10 58 -28 7 -41 -21 -37
-80 3 -44 5 -48 28 -45 13 2 30 9 37 14 9 8 12 4 12 -16 0 -14 -4 -26 -10 -26
-5 0 -10 -5 -10 -11 0 -6 7 -8 16 -5 19 7 70 -24 54 -34 -9 -5 -8 -13 1 -29
18 -28 31 -27 20 2 -9 23 2 57 17 57 4 0 8 -29 8 -65 0 -71 3 -78 26 -70 10 4
14 14 11 26 -3 10 0 19 6 19 6 0 12 -4 12 -10 1 -5 3 -14 4 -20 1 -5 3 -14 4
-20 0 -5 6 -10 12 -10 8 0 8 4 0 14 -9 11 -8 15 5 20 24 9 26 8 19 -13 -4 -14
1 -21 22 -27 15 -4 32 -8 37 -8 5 -1 13 -14 17 -29 10 -38 53 -93 78 -100 18
-4 19 -2 10 15 -6 11 -8 22 -5 25 8 8 36 -17 36 -33 0 -7 5 -16 11 -19 6 -4 9
0 7 11 -2 11 7 23 22 31 14 7 24 20 22 29 -2 9 2 14 9 12 16 -5 20 -34 9 -64
-5 -13 -5 -26 -1 -29 5 -2 12 6 15 20 8 30 32 33 41 5 10 -33 66 -83 78 -71 7
7 7 11 1 11 -5 0 -21 9 -35 21 -19 15 -25 27 -21 45 5 27 22 33 22 8 0 -9 8
-23 18 -31 9 -8 11 -11 3 -7 -9 4 -12 3 -7 -4 3 -6 20 -13 36 -17 21 -5 30
-13 30 -26 0 -10 -4 -19 -10 -19 -5 0 -10 -8 -10 -17 1 -17 1 -17 14 0 7 9 23
17 35 17 12 0 19 4 16 10 -3 6 -1 10 5 10 7 0 10 -6 7 -14 -3 -7 0 -19 6 -25
9 -9 9 -14 -2 -20 -11 -7 -11 -9 0 -14 9 -4 7 -6 -5 -6 -17 -1 -18 -3 -4 -18
9 -10 18 -30 20 -45 4 -20 0 -28 -15 -32 -20 -5 -20 -6 4 -25 20 -17 22 -22 9
-30 -9 -7 -19 -6 -29 2 -12 10 -14 9 -8 -5 3 -10 2 -18 -4 -18 -6 0 -7 -5 -3
-11 4 -8 9 -8 17 0 6 6 20 11 30 11 16 0 17 -3 7 -15 -7 -8 -8 -15 -4 -15 5 0
15 -13 22 -30 8 -16 20 -30 27 -30 8 0 20 -9 28 -20 8 -11 17 -17 20 -13 4 3
7 -3 7 -13 0 -17 13 -23 80 -38 43 -10 86 -16 94 -13 12 5 15 0 13 -16 -1 -12
-5 -24 -9 -27 -3 -3 13 -5 37 -5 50 0 63 -8 45 -30 -11 -13 -10 -18 6 -30 10
-8 24 -15 29 -16 6 0 -1 -4 -15 -8 -14 -4 -30 -18 -37 -31 -7 -14 -13 -21 -13
-16 0 5 -8 2 -19 -8 -12 -11 -16 -25 -13 -41 3 -18 0 -25 -11 -25 -22 0 -29
-28 -9 -33 9 -3 -5 -5 -33 -6 -36 0 -46 2 -35 9 14 9 -146 16 -235 10 -31 -2
-62 -20 -34 -20 8 0 19 -10 24 -22 6 -13 21 -25 35 -27 14 -1 27 -6 30 -10 3
-4 30 -12 60 -19 107 -23 114 -26 81 -37 -29 -9 -26 -23 5 -31 23 -6 25 -10
19 -44 -5 -30 -3 -39 12 -45 28 -12 44 -14 37 -4 -13 22 35 6 50 -16 9 -14 23
-25 31 -25 8 0 18 -7 23 -16 6 -12 18 -15 36 -12 19 4 24 2 16 -7 -6 -8 -6
-15 2 -23 16 -16 58 -15 58 1 0 17 74 39 108 31 18 -4 23 -3 14 4 -18 13 25
24 47 13 9 -5 22 -6 29 -4 15 6 17 -53 2 -62 -23 -14 -7 -26 31 -22 26 2 47
11 58 24 9 11 25 24 36 28 18 8 17 9 -7 13 -34 4 -37 19 -5 24 12 2 21 9 19
17 -4 17 29 42 47 35 11 -3 11 -1 2 10 -9 11 -6 17 15 30 25 17 26 17 49 -8
13 -14 26 -35 30 -46 9 -27 25 -26 25 3 0 12 4 17 8 11 4 -6 15 -13 25 -17 30
-11 20 -36 -13 -35 -17 1 -36 -4 -42 -10 -13 -13 0 -35 18 -28 10 4 14 -3 15
-22 2 -23 2 -24 6 -4 3 13 12 22 23 22 10 0 20 6 23 13 6 18 20 1 21 -28 1
-14 5 -26 11 -28 5 -1 9 13 9 31 -1 17 3 32 7 32 5 0 9 -13 9 -30 0 -23 4 -30
20 -30 22 0 26 -20 8 -38 -9 -9 -8 -12 6 -12 14 0 17 -5 13 -22 -4 -12 -1 -28
5 -35 13 -16 -18 -31 -34 -15 -6 6 -17 8 -25 5 -12 -5 -10 -9 8 -18 l22 -13
-21 -6 c-12 -4 -20 -12 -16 -17 3 -6 0 -16 -6 -24 -10 -12 -10 -15 0 -15 7 0
10 -7 6 -15 -8 -21 57 -21 78 0 16 17 61 21 51 5 -3 -5 -15 -10 -26 -10 -10 0
-19 -4 -19 -10 0 -5 9 -10 21 -10 11 0 18 -4 15 -8 -3 -5 -22 -7 -42 -6 -36 3
-36 3 -19 -16 17 -19 17 -20 -3 -20 -31 0 -27 -18 5 -22 41 -5 39 -36 -3 -54
-19 -8 -39 -12 -44 -9 -5 3 -11 1 -14 -4 -4 -5 4 -11 16 -13 18 -2 22 -8 20
-27 -3 -15 0 -21 8 -16 7 4 13 -1 17 -13 7 -28 46 -46 82 -39 28 6 31 4 31
-18 0 -16 -6 -25 -15 -25 -17 0 -20 -16 -4 -26 6 -3 9 -19 5 -34 -5 -30 16
-61 29 -40 9 15 35 12 35 -4 0 -9 8 -13 23 -10 12 2 16 1 9 -2 -10 -5 -10 -9
-1 -20 15 -18 29 -18 29 1 0 8 9 15 20 15 11 0 20 -4 20 -10 0 -14 33 -13 48
2 9 9 12 9 12 -3 0 -12 2 -12 10 1 7 11 10 8 10 -16 0 -20 6 -34 16 -38 11 -4
13 -10 6 -19 -5 -6 -15 -43 -22 -82 -7 -38 -16 -74 -20 -80 -4 -5 -17 -53 -30
-105 -12 -52 -26 -102 -29 -110 -4 -8 -8 -35 -10 -60 -1 -25 -7 -65 -12 -90
-5 -25 -14 -83 -19 -130 -6 -47 -13 -93 -16 -103 -3 -10 -12 -59 -20 -110 -7
-51 -20 -128 -28 -172 -8 -44 -21 -123 -30 -175 -9 -52 -23 -124 -32 -160 -8
-36 -17 -78 -19 -95 -2 -16 -16 -84 -30 -150 -14 -66 -28 -136 -31 -155 -10
-60 -54 -301 -74 -400 -11 -52 -26 -140 -35 -195 -8 -55 -24 -149 -35 -210
-11 -60 -22 -128 -25 -150 -3 -22 -12 -78 -20 -125 -8 -47 -19 -119 -25 -160
-6 -41 -22 -147 -36 -235 -13 -88 -42 -286 -64 -440 -34 -241 -46 -330 -76
-555 -2 -19 -6 -48 -9 -65 -2 -16 -7 -52 -10 -80 -3 -27 -12 -97 -20 -155 -12
-94 -29 -232 -40 -330 -2 -19 -9 -75 -14 -125 -6 -49 -13 -110 -16 -135 -2
-25 -12 -108 -20 -185 -33 -304 -44 -413 -50 -495 -6 -82 -18 -234 -31 -370
-3 -36 -12 -144 -19 -240 -24 -297 -34 -423 -40 -480 -3 -30 -10 -131 -15
-225 -5 -93 -12 -183 -15 -200 -6 -29 -23 -257 -44 -590 -6 -88 -13 -189 -16
-225 -3 -36 -8 -109 -11 -162 l-7 -98 3945 0 c3592 0 3946 1 3952 16 3 9 6 68
6 132 0 84 -4 125 -15 146 -8 15 -15 47 -15 70 0 23 -7 51 -15 62 -8 10 -15
31 -15 45 0 15 -7 32 -15 39 -8 7 -15 23 -15 36 0 12 -7 29 -15 38 -8 8 -15
21 -15 30 0 8 -6 21 -14 28 -7 8 -17 24 -20 36 -4 12 -12 22 -17 22 -5 0 -9
11 -9 24 0 13 -7 29 -15 36 -8 7 -15 21 -15 31 0 9 -7 24 -15 33 -8 8 -15 24
-15 36 0 11 -7 23 -15 26 -10 4 -15 20 -15 48 0 22 -7 54 -15 70 -11 21 -15
65 -15 180 0 118 -3 156 -15 172 -8 10 -15 40 -15 66 0 28 -6 53 -15 62 -10
10 -15 35 -15 74 0 41 -5 63 -15 72 -12 10 -15 41 -15 162 0 119 3 152 15 164
11 11 15 37 15 93 0 43 7 100 15 127 21 69 21 318 0 358 -12 22 -15 70 -15
221 0 159 -3 196 -15 209 -8 8 -15 28 -15 45 0 21 -5 31 -15 31 -11 0 -15 11
-15 40 0 27 -5 43 -15 46 -9 4 -15 19 -15 39 0 19 -7 40 -15 49 -8 8 -15 31
-15 51 0 22 -6 38 -15 41 -12 5 -15 25 -15 93 0 61 -4 93 -15 107 -9 12 -14
43 -15 84 0 41 -6 73 -14 86 -12 17 -15 103 -18 507 -2 372 -6 489 -15 499
-10 9 -13 66 -13 217 0 163 -3 212 -15 235 -9 16 -15 55 -15 91 0 41 -5 67
-14 74 -10 8 -15 50 -18 161 -3 98 -8 154 -16 162 -7 7 -12 45 -12 99 0 65 -4
90 -15 99 -12 10 -15 40 -15 147 0 110 -3 135 -15 139 -11 5 -15 22 -15 65 0
46 -3 59 -15 59 -13 0 -15 37 -15 270 0 218 -3 278 -15 307 -11 25 -15 72 -15
160 0 101 -3 125 -15 129 -12 5 -15 26 -15 100 0 75 -3 96 -15 100 -11 5 -15
24 -15 80 0 57 -4 76 -15 80 -11 5 -15 22 -15 64 0 39 -5 64 -15 74 -9 9 -15
33 -15 64 0 32 -5 54 -15 62 -10 8 -15 31 -15 65 0 38 -4 55 -15 59 -10 4 -15
19 -15 49 0 27 -6 49 -15 57 -9 8 -15 29 -15 55 0 29 -5 45 -15 49 -10 3 -15
19 -15 46 0 27 -5 43 -15 46 -9 4 -15 19 -15 40 0 22 -6 37 -15 40 -8 4 -15
17 -15 30 0 14 -7 27 -15 30 -8 4 -15 17 -15 30 0 14 -7 27 -15 30 -8 4 -15
14 -15 24 0 10 -7 23 -15 30 -8 7 -15 18 -15 25 0 7 -7 15 -15 19 -8 3 -15 15
-15 26 0 11 -7 23 -15 26 -8 4 -15 12 -15 20 0 8 -7 14 -15 14 -8 0 -15 7 -15
15 0 8 -7 15 -15 15 -8 0 -15 7 -15 15 0 8 -9 15 -19 15 -11 0 -22 4 -25 9
-13 20 -89 51 -125 51 -22 0 -44 6 -51 15 -8 10 -30 15 -61 15 -37 0 -49 4
-49 15 0 11 -11 15 -40 15 -27 0 -43 5 -46 15 -4 8 -18 15 -34 15 -16 0 -30 7
-34 15 -3 9 -19 15 -41 15 -22 0 -38 6 -41 15 -4 8 -18 15 -34 15 -16 0 -30 7
-34 15 -3 9 -18 15 -40 15 -21 0 -36 6 -40 15 -3 9 -18 15 -35 15 -16 0 -31 6
-35 15 -3 10 -19 15 -45 15 -25 0 -41 5 -45 15 -3 9 -18 15 -40 15 -21 0 -36
6 -40 15 -3 10 -19 15 -46 15 -29 0 -40 4 -40 15 0 10 -10 15 -34 15 -18 0
-39 7 -46 15 -7 9 -29 15 -55 15 -26 0 -48 6 -55 15 -8 9 -30 15 -60 15 -30 0
-52 6 -60 15 -8 9 -30 15 -60 15 -33 0 -50 5 -54 15 -3 10 -19 15 -44 15 -23
0 -45 6 -52 15 -8 10 -31 15 -72 15 -43 0 -60 4 -64 15 -4 10 -20 15 -48 15
-22 0 -50 7 -60 15 -12 9 -42 15 -74 15 -34 0 -59 5 -68 15 -10 9 -34 15 -64
15 -27 0 -52 5 -55 10 -4 6 -11 8 -16 5 -5 -4 -9 -1 -9 4 0 6 -18 11 -41 11
-23 0 -47 7 -55 15 -9 9 -33 15 -57 15 -36 0 -39 -2 -27 -14 8 -8 32 -17 53
-20 21 -4 47 -10 56 -16 10 -5 33 -12 52 -15 62 -11 119 -27 124 -36 6 -9 -10
-6 -65 10 -43 14 -63 14 -55 2 3 -6 26 -13 50 -17 25 -3 48 -11 51 -16 4 -7
-6 -8 -27 -3 -55 10 -89 26 -89 41 0 8 -10 14 -22 14 -13 0 -30 5 -38 10 -11
7 -17 5 -22 -8 -6 -16 -7 -16 -7 0 -1 11 -13 19 -36 24 -20 3 -39 4 -42 0 -4
-3 3 -6 15 -6 11 0 24 -5 27 -10 7 -11 -32 -10 -50 2 -5 3 -57 16 -115 28 -95
19 -130 36 -130 61 0 4 -18 10 -40 14 -22 4 -42 11 -46 16 -3 5 -18 9 -34 9
-16 0 -31 4 -35 9 -3 5 -29 15 -58 21 -69 15 -163 55 -148 64 6 4 8 12 5 18
-5 7 -11 5 -20 -6 -12 -17 -13 -16 -23 3 -10 17 -9 20 5 14 12 -4 15 -3 10 5
-4 7 -14 12 -23 12 -8 0 -29 7 -46 16 -62 32 -68 35 -77 29 -6 -4 -10 -2 -10
4 0 5 -34 26 -75 46 -42 21 -78 42 -81 46 -3 5 -14 9 -24 9 -10 0 -22 5 -26
12 -12 19 50 -2 261 -92 28 -12 63 -27 80 -35 16 -7 32 -12 36 -9 4 2 10 -3
13 -12 3 -8 10 -12 16 -9 5 3 10 2 10 -2 0 -5 9 -9 20 -9 13 0 20 6 18 16 -2
9 -14 15 -28 15 -14 0 -31 8 -38 18 -8 10 -26 17 -48 17 -22 0 -37 6 -40 15
-4 8 -14 15 -24 15 -10 0 -25 7 -34 15 -8 8 -22 15 -31 15 -9 0 -23 7 -31 15
-9 8 -24 15 -35 15 -11 0 -27 7 -35 15 -9 8 -28 15 -44 15 -16 0 -30 7 -34 15
-3 8 -15 15 -26 15 -12 0 -28 7 -36 15 -9 9 -34 15 -58 15 -27 0 -48 6 -56 15
-7 9 -29 15 -52 15 -22 0 -46 7 -54 15 -9 8 -33 15 -55 15 -23 0 -47 7 -55 15
-9 8 -26 15 -39 15 -13 0 -25 5 -27 11 -2 6 -26 13 -53 16 -28 3 -56 10 -63
16 -7 5 -47 12 -90 14 -42 2 -88 10 -102 16 -26 12 -60 42 -60 52 0 13 -71
103 -132 167 -10 10 -18 22 -18 27 0 5 -27 36 -60 70 -33 34 -60 66 -60 71 0
6 -4 10 -9 10 -4 0 -21 19 -37 43 -16 23 -32 43 -36 45 -5 2 -8 10 -8 18 0 8
-7 14 -15 14 -8 0 -15 7 -15 15 0 8 -6 15 -14 15 -8 0 -16 10 -20 23 -3 13
-17 36 -31 51 -14 15 -25 31 -25 37 0 5 -7 9 -15 9 -8 0 -15 7 -15 15 0 8 -7
15 -15 15 -8 0 -15 5 -15 10 0 14 -38 68 -67 97 -13 12 -23 27 -23 33 0 5 -7
10 -15 10 -8 0 -15 6 -15 14 0 8 -7 16 -15 20 -8 3 -15 15 -15 26 0 11 -7 23
-15 26 -8 4 -15 12 -15 20 0 8 -7 14 -15 14 -8 0 -15 8 -15 18 0 10 -13 32
-30 50 -34 37 -40 93 -15 126 10 14 15 45 15 97 0 59 3 78 15 83 12 4 15 25
15 93 1 62 5 94 15 107 9 11 15 41 15 69 0 30 6 54 15 63 10 10 15 35 15 74 0
42 4 59 15 64 10 3 15 19 15 46 0 44 18 53 46 25 12 -11 41 -15 123 -15 84 0
111 3 121 15 7 8 25 15 40 15 16 0 30 7 34 15 3 8 15 15 26 15 11 0 23 7 26
15 4 8 12 15 20 15 8 0 14 4 14 9 0 6 11 22 25 37 14 15 30 44 35 65 6 21 15
41 20 44 6 3 10 17 10 31 0 13 4 24 9 24 5 0 14 14 20 30 5 17 15 30 20 30 6
0 11 6 11 14 0 8 7 16 15 20 8 3 15 12 15 19 0 8 7 20 15 27 8 7 15 19 15 27
0 8 7 21 15 29 8 9 15 28 15 44 0 16 7 30 15 34 8 3 15 14 15 25 0 10 7 32 15
47 9 17 15 56 15 94 0 37 4 70 9 75 6 6 13 46 17 90 4 44 11 83 17 86 5 4 12
42 15 85 2 44 8 84 13 90 5 6 11 62 15 125 4 64 12 117 18 121 7 5 11 55 11
140 l0 133 -35 53 c-19 28 -40 52 -47 52 -7 0 -13 7 -13 15 0 10 -10 15 -30
15 -25 0 -30 4 -30 24 0 31 -22 50 -38 34 -7 -7 -12 -17 -12 -24 0 -6 -7 -17
-15 -24 -13 -11 -15 -5 -15 46 0 43 3 55 11 47 6 -6 18 -9 25 -6 10 4 14 26
14 84 0 75 1 78 27 91 17 8 30 25 35 44 4 17 15 37 23 44 8 7 15 19 15 26 0 8
12 15 28 15 15 1 36 2 46 3 28 1 31 22 4 29 l-22 6 27 25 c15 14 27 36 27 48
0 17 8 27 30 35 23 9 30 18 30 37 0 21 5 26 25 26 16 0 25 6 25 15 0 8 -4 15
-10 15 -14 0 -12 84 2 98 7 7 20 12 30 12 15 0 18 9 18 59 0 43 4 60 15 65 8
3 15 16 15 29 0 13 7 32 15 43 8 10 15 30 15 44 1 14 14 45 29 70 20 34 34 46
56 48 15 2 32 -2 37 -10 6 -9 7 -5 3 12 -4 14 -13 30 -21 36 -29 23 -10 105
34 141 11 9 14 49 14 190 0 98 4 183 9 189 9 11 9 18 -15 144 -17 95 -28 120
-60 144 -14 10 -26 26 -26 35 0 9 -13 28 -30 41 -16 14 -29 30 -30 36 0 7 -7
14 -15 18 -8 3 -15 17 -15 31 0 16 -6 25 -15 25 -9 0 -15 9 -15 25 0 14 -7 28
-15 31 -8 4 -15 17 -15 30 0 14 -7 27 -15 30 -8 4 -15 14 -15 23 0 9 -13 31
-30 49 -16 18 -30 37 -30 43 0 5 -4 9 -9 9 -5 0 -14 14 -20 30 -5 17 -15 30
-20 30 -6 0 -11 7 -11 15 0 9 -9 15 -25 15 -14 0 -28 7 -31 15 -4 8 -12 15
-20 15 -8 0 -14 7 -14 15 0 8 -6 15 -13 15 -7 0 -18 14 -24 30 -6 17 -18 30
-26 30 -8 0 -17 9 -20 19 -3 14 2 21 19 25 34 9 30 35 -6 42 -36 8 -77 68 -60
89 9 10 6 16 -9 24 -11 6 -28 11 -39 11 -11 0 -22 7 -26 15 -3 8 -12 15 -20
15 -9 0 -16 11 -18 28 -3 25 -6 27 -56 30 -35 2 -55 8 -59 18 -3 7 -11 14 -18
14 -7 0 -15 7 -19 15 -3 9 -19 15 -41 15 -22 0 -38 6 -41 15 -4 8 -16 15 -29
15 -12 0 -28 7 -35 15 -7 8 -19 15 -27 15 -7 0 -16 7 -19 15 -4 8 -18 15 -32
15 -16 0 -35 10 -48 25 -14 16 -37 28 -61 32 -21 3 -42 12 -46 20 -4 7 -19 13
-31 13 -13 0 -26 7 -30 15 -3 8 -13 15 -22 15 -9 0 -29 14 -44 30 -15 17 -38
30 -50 30 -12 0 -39 14 -60 30 -21 17 -42 30 -48 30 -5 0 -15 7 -22 15 -7 8
-21 15 -31 15 -11 0 -19 4 -19 9 0 9 -10 16 -87 56 -17 9 -33 25 -36 36 -3 12
-14 19 -31 19 -14 0 -46 11 -71 25 -26 13 -73 27 -108 31 -34 4 -67 11 -74 16
-6 5 -51 12 -100 15 -48 3 -93 9 -98 14 -6 4 -39 11 -75 14 -36 4 -84 13 -108
21 -23 8 -83 14 -132 14 -49 0 -112 5 -141 11 -38 8 -58 8 -77 0 -20 -10 -27
-9 -33 1 -6 9 -36 14 -89 15 -44 2 -89 7 -100 13 -24 13 -149 9 -147 -5z
m1220 -181 c26 -9 47 -20 47 -24 0 -8 37 -27 135 -70 28 -12 61 -27 74 -33
l23 -12 -23 -5 c-22 -6 -21 -7 9 -13 19 -4 46 -15 60 -26 15 -10 29 -19 32
-20 25 -3 69 -25 65 -31 -6 -10 35 -37 69 -46 14 -3 26 -10 26 -15 0 -5 5 -9
11 -9 18 0 99 -43 99 -52 0 -4 7 -8 16 -8 8 0 25 -5 37 -11 l21 -12 -23 -9
c-18 -6 -34 -2 -70 21 -26 16 -63 32 -82 36 -50 11 -70 24 -39 26 16 1 8 5
-20 10 -68 13 -79 19 -55 29 l20 9 -20 0 c-38 2 -96 22 -90 32 4 5 -7 14 -24
20 -17 6 -31 15 -31 20 0 5 -9 9 -20 9 -10 0 -23 8 -28 17 -5 9 -25 24 -43 33
-19 9 -33 22 -31 28 1 7 -5 12 -14 12 -13 0 -99 53 -114 71 -3 3 -27 9 -53 12
-27 4 -56 11 -65 17 -29 16 48 12 101 -6z m-3293 -1535 c0 -9 7 -22 15 -29 8
-7 15 -19 15 -26 0 -8 5 -14 10 -14 6 0 10 -9 10 -20 0 -21 54 -55 71 -45 5 4
16 1 24 -5 9 -8 30 -10 52 -6 21 3 32 3 26 0 -7 -3 -13 -10 -13 -15 0 -13 34
-11 48 3 8 8 12 8 12 1 0 -26 -158 -73 -171 -51 -8 13 -44 6 -44 -9 0 -24 -15
-24 -40 1 -14 14 -32 26 -39 26 -7 0 -21 9 -31 20 -21 23 -40 27 -32 6 6 -16
-10 -26 -30 -18 -20 7 -15 19 8 25 17 5 20 11 16 28 -4 13 -2 28 3 34 6 7 6
24 1 42 -7 24 -5 32 10 41 10 7 26 12 34 12 10 0 15 7 14 18 -1 9 -1 21 0 26
2 15 30 -27 31 -45z m1176 42 c-3 -4 4 -7 14 -7 10 0 17 3 15 6 -2 3 17 5 41
5 31 0 43 -4 39 -12 -3 -9 6 -13 26 -13 17 0 28 -4 24 -9 -3 -5 4 -16 15 -24
11 -7 17 -17 13 -20 -3 -4 5 -7 20 -7 33 0 57 -9 57 -22 0 -7 -37 -9 -108 -6
-93 5 -114 9 -148 30 -56 36 -82 67 -65 77 16 10 62 11 57 2z m1374 -2676 c7
-8 21 -15 32 -15 11 0 29 -5 40 -11 16 -9 26 -7 49 10 33 25 39 26 39 6 0 -8
9 -19 21 -25 11 -7 18 -17 16 -25 -7 -18 12 -35 40 -35 15 0 23 6 23 17 0 9 3
13 7 10 3 -4 12 -2 19 4 11 9 18 4 31 -20 13 -22 25 -31 43 -30 17 1 19 3 8 6
-10 2 -18 11 -18 19 0 16 11 18 26 5 5 -4 26 -6 47 -4 37 5 38 6 22 29 -19 29
-19 34 1 34 8 0 13 -4 10 -8 -7 -12 31 -72 45 -72 7 0 0 -11 -15 -25 -26 -24
-34 -45 -17 -45 6 0 13 5 16 10 10 15 25 12 25 -6 0 -18 23 -44 39 -44 6 0 10
-21 10 -50 -1 -27 -6 -50 -10 -50 -5 0 -9 9 -9 21 0 11 -5 17 -10 14 -6 -4 -8
-10 -5 -15 5 -9 -20 -128 -29 -137 -3 -3 -20 -7 -38 -9 -41 -5 -57 -20 -30
-29 30 -9 16 -35 -18 -35 -16 0 -36 -7 -44 -16 -9 -8 -20 -13 -24 -10 -5 3
-18 -1 -28 -9 -18 -14 -18 -14 4 -15 14 0 21 -4 17 -11 -4 -6 -13 -8 -20 -5
-7 2 -18 -6 -25 -19 -13 -25 -45 -23 -36 1 7 17 -6 18 -22 2 -9 -9 -12 -6 -12
14 0 18 -7 27 -21 31 -12 3 -18 10 -14 16 3 6 -2 14 -12 18 -26 10 -63 50 -63
68 0 8 -4 15 -10 15 -5 0 -13 12 -16 28 -4 15 -14 34 -23 43 -9 9 -41 51 -71
93 -30 42 -62 78 -71 81 -48 16 -68 155 -24 164 11 2 24 9 28 17 11 19 61 18
77 -1z m1351 -5881 c47 -33 74 -83 82 -154 l6 -55 -56 -33 c-93 -55 -191 -62
-258 -18 -20 13 -23 21 -18 53 11 74 79 173 119 173 8 0 14 4 14 9 0 8 58 50
69 51 3 0 22 -12 42 -26z m5513 -3270 c20 -181 89 -520 115 -559 4 -5 15 -35
25 -65 10 -30 20 -62 23 -70 18 -47 29 -123 15 -100 -5 8 -13 32 -16 54 -4 21
-11 46 -15 55 -33 64 -51 111 -51 130 0 11 -4 21 -9 21 -5 0 -13 15 -16 33 -4
17 -11 34 -14 37 -7 5 -19 82 -42 260 -5 41 -13 91 -19 110 -12 46 -22 202
-10 174 4 -11 11 -47 14 -80z"/>
<path d="M7842 14144 c-7 -8 -26 -14 -42 -14 -20 0 -30 -5 -30 -15 0 -9 -9
-15 -22 -15 -18 0 -20 -2 -8 -10 11 -7 9 -11 -13 -19 -36 -14 -34 -24 3 -19
36 5 27 -8 -11 -17 -15 -4 -30 -2 -33 3 -8 14 -94 -29 -99 -50 -6 -20 11 -38
29 -31 8 3 14 0 14 -5 0 -6 -9 -13 -19 -17 -14 -4 -18 -13 -16 -33 1 -14 8
-28 14 -30 6 -2 9 -8 6 -12 -10 -16 43 -44 58 -32 7 6 30 9 51 6 21 -2 45 1
52 7 9 8 14 8 14 1 0 -6 10 -12 23 -14 14 -2 21 -9 21 -21 -2 -20 12 -23 19
-4 3 9 8 9 21 -2 13 -11 14 -16 4 -22 -7 -4 -9 -11 -5 -15 3 -4 12 -2 19 3 7
6 24 14 38 18 22 7 23 6 12 -8 -7 -8 -31 -18 -53 -22 -21 -4 -39 -11 -39 -15
0 -5 -16 -12 -36 -16 -61 -11 -199 -164 -149 -164 8 0 26 5 42 10 l28 10 -24
-20 c-13 -11 -31 -20 -42 -20 -10 0 -21 -5 -25 -12 -5 -8 7 -10 47 -5 l54 6
-35 -19 c-44 -24 -14 -27 35 -3 27 13 40 14 53 7 13 -8 22 -6 36 8 25 23 56
23 63 0 2 -10 14 -19 26 -19 12 -1 27 -9 33 -18 6 -8 17 -15 23 -15 7 0 9 -4
6 -10 -3 -6 1 -7 10 -4 9 4 26 2 38 -4 12 -6 39 -13 60 -17 20 -3 37 -11 37
-17 0 -5 -6 -8 -12 -5 -44 16 -60 18 -54 8 5 -7 -2 -11 -18 -11 -14 0 -26 5
-26 11 0 5 -4 7 -10 4 -21 -13 -8 -23 38 -30 26 -4 53 -12 61 -18 12 -9 13 -9
7 1 -4 6 -2 12 3 12 6 0 11 -4 11 -10 0 -5 19 -10 42 -10 62 0 37 -13 -50 -26
-62 -10 -68 -12 -32 -12 25 -1 66 3 93 7 26 4 47 5 47 1 0 -16 -111 -32 -193
-29 -52 3 -89 0 -92 -6 -3 -6 -7 -5 -11 3 -3 6 -13 12 -22 12 -13 0 -13 -2 3
-13 30 -23 8 -37 -57 -37 -34 0 -59 -2 -57 -4 2 -2 49 -9 104 -16 55 -6 116
-14 135 -17 33 -6 34 -7 10 -14 -14 -3 29 -6 95 -5 66 1 126 6 133 10 7 4 19
2 27 -4 11 -9 21 -7 44 9 16 12 36 18 45 15 9 -3 16 -1 16 5 0 6 12 11 26 11
21 0 24 4 19 20 -4 14 -2 20 9 20 8 0 16 -7 18 -16 3 -14 7 -13 28 5 17 15 21
24 13 27 -26 11 -12 24 25 24 43 0 66 12 60 31 -3 9 -21 13 -59 11 l-54 -1 65
16 c36 9 68 21 72 27 5 7 18 5 38 -8 17 -10 32 -16 33 -14 1 1 10 17 19 34 9
17 17 39 18 50 0 10 3 41 6 67 5 37 2 57 -12 84 -18 33 -18 35 -1 44 9 6 14
15 11 21 -4 6 -8 40 -9 75 -2 36 -8 70 -14 76 -6 6 -11 18 -11 27 0 8 -12 27
-27 41 -16 14 -49 48 -75 77 -26 29 -53 52 -58 52 -6 0 -8 5 -5 10 4 7 -7 8
-34 4 -36 -6 -39 -5 -34 14 4 18 -1 21 -59 27 -34 4 -100 6 -145 6 -46 0 -83
3 -83 8 0 4 -20 5 -44 1 -37 -6 -43 -4 -39 9 5 13 3 14 -8 4 -7 -7 -23 -13
-35 -13 -12 0 -25 6 -28 13 -3 9 -8 7 -19 -5 -12 -15 -19 -16 -53 -5 -21 6
-43 16 -47 22 -6 7 -10 6 -14 -2 -6 -17 -30 -16 -40 1 -7 12 -10 12 -21 0z"/>
<path d="M6999 13668 c-4 -60 13 -278 23 -284 4 -3 8 9 8 25 0 17 5 31 10 31
6 0 10 -8 10 -18 0 -10 8 -28 17 -42 19 -27 21 -94 10 -315 -7 -148 -15 -237
-23 -270 -4 -15 -3 -16 4 -5 14 23 30 125 37 222 3 48 9 97 14 110 28 70 52
186 55 258 l3 81 -51 78 c-28 42 -59 91 -68 107 -18 31 -47 44 -49 22z"/>
<path d="M8205 12639 c-54 -30 -98 -65 -106 -86 -6 -16 -13 -21 -25 -16 -12 4
-15 3 -10 -5 4 -7 -6 -25 -24 -42 -16 -16 -30 -38 -30 -48 0 -10 -5 -23 -11
-29 -8 -8 -6 -18 7 -38 9 -14 20 -23 23 -18 27 36 146 133 164 133 15 0 18 3
9 9 -10 6 -10 10 1 20 10 8 13 25 11 55 -3 31 0 49 11 60 19 18 9 20 -20 5z"/>
<path d="M7911 10015 c1 -5 0 -17 -3 -25 -4 -8 -18 -55 -33 -105 -15 -49 -31
-98 -36 -107 -5 -10 -9 -34 -9 -53 0 -19 -4 -35 -10 -35 -5 0 -10 -13 -10 -28
0 -16 -6 -48 -14 -73 -20 -62 -65 -262 -75 -334 -5 -33 -13 -73 -19 -90 -34
-99 -41 -128 -36 -137 4 -5 -3 -22 -14 -37 -11 -15 -24 -47 -30 -71 -28 -116
-34 -137 -47 -167 -8 -17 -15 -37 -15 -45 0 -7 -6 -22 -13 -33 -20 -31 -38
-91 -32 -107 3 -8 1 -34 -4 -59 -7 -32 -7 -46 2 -51 9 -6 9 -10 -2 -17 -7 -5
-11 -13 -8 -18 4 -6 -9 -24 -28 -41 -19 -16 -35 -37 -35 -46 0 -9 -4 -16 -9
-16 -5 0 -12 -8 -15 -18 -8 -25 -133 -152 -142 -144 -4 4 -4 -1 -1 -11 4 -11
0 -21 -13 -29 -11 -7 -20 -19 -20 -26 0 -7 -4 -11 -9 -8 -5 3 -12 -1 -15 -10
-3 -8 -10 -12 -16 -9 -5 3 -10 -3 -10 -15 0 -12 -10 -25 -24 -32 -14 -6 -30
-23 -36 -38 -7 -16 -22 -31 -36 -34 -14 -4 -22 -11 -19 -16 3 -6 -5 -21 -19
-35 -15 -14 -26 -30 -26 -36 0 -5 -11 -2 -25 7 -14 9 -22 21 -19 26 4 6 10 6
17 -1 14 -14 27 -14 27 -1 0 6 -7 10 -16 10 -11 0 -14 5 -10 16 4 11 1 14 -13
9 -31 -10 -52 4 -40 26 5 11 7 23 4 28 -3 5 4 13 16 16 14 5 17 10 10 14 -8 5
-7 16 1 39 11 27 10 34 -2 42 -19 12 -26 4 -11 -14 10 -12 8 -19 -9 -36 -12
-12 -28 -19 -36 -16 -15 6 -20 46 -5 46 5 0 11 23 15 50 5 35 11 50 22 50 11
0 12 4 6 16 -14 26 3 102 28 126 21 20 22 22 5 34 -13 9 -17 28 -18 76 -1 35
-5 66 -10 69 -6 4 0 12 12 18 29 16 27 29 -4 23 -18 -3 -25 0 -25 12 0 9 4 16
8 16 10 0 10 60 0 76 -4 6 -2 28 4 50 6 21 11 44 10 50 -1 6 5 17 13 24 17 14
20 66 4 76 -6 3 -15 1 -19 -6 -5 -7 -15 -10 -25 -6 -12 4 -16 2 -12 -8 8 -22
-16 -67 -32 -61 -7 3 -20 0 -27 -6 -10 -8 -14 -8 -14 0 0 6 3 11 8 11 4 0 8
19 9 43 2 23 9 47 17 53 8 6 16 17 18 24 2 8 14 24 27 37 23 22 41 49 57 83 4
8 22 34 41 57 19 23 39 57 45 75 6 18 20 45 31 60 37 50 7 50 -42 -1 -26 -27
-63 -57 -82 -66 -19 -10 -39 -25 -46 -34 -6 -9 -15 -13 -19 -9 -3 4 -15 -4
-26 -17 -11 -14 -28 -25 -38 -25 -10 0 -22 -4 -25 -10 -3 -5 -14 -10 -23 -10
-13 0 -17 -10 -19 -41 -1 -27 -8 -47 -22 -60 -24 -23 -32 -24 -25 -4 4 8 1 15
-4 15 -13 0 -42 -28 -42 -41 0 -5 -11 -9 -25 -9 -15 0 -25 -6 -25 -14 0 -8 -6
-16 -14 -19 -20 -8 -27 -47 -10 -54 12 -5 12 -9 -5 -24 -11 -11 -24 -19 -29
-19 -5 0 -21 -9 -35 -20 -20 -16 -30 -18 -51 -10 -21 8 -30 6 -45 -9 -11 -11
-17 -22 -14 -25 3 -2 2 -10 -2 -16 -6 -9 -9 -9 -15 0 -5 8 -15 1 -31 -22 -32
-46 -49 -57 -86 -58 -17 0 -34 -4 -38 -10 -3 -5 -13 -7 -23 -4 -16 5 -16 5 1
-6 9 -6 17 -18 17 -27 0 -15 -2 -14 -13 2 -10 12 -19 15 -28 9 -8 -4 -23 -8
-33 -9 -13 0 -22 -9 -26 -25 -5 -19 -13 -25 -36 -26 -46 -1 -50 -3 -63 -26
-10 -21 -11 -21 -8 10 3 29 1 32 -25 32 -15 0 -28 -4 -28 -10 0 -5 5 -10 11
-10 5 0 7 -5 4 -11 -4 -6 -13 -8 -21 -5 -14 5 -18 -9 -15 -46 2 -18 -17 -23
-61 -19 -10 1 -18 -4 -18 -12 0 -16 -34 -30 -62 -27 -12 1 -18 -6 -18 -19 0
-12 6 -21 13 -21 6 0 3 -6 -7 -12 -15 -9 -22 -7 -35 11 -16 21 -16 21 -29 1
-7 -11 -18 -20 -26 -20 -7 0 -16 -9 -19 -20 -3 -13 -10 -18 -21 -14 -19 7 -21
25 -5 41 8 8 8 13 -1 18 -6 4 -18 -1 -25 -11 -17 -23 -18 -31 -5 -39 16 -10
-30 -46 -54 -43 -13 1 -31 -3 -40 -11 -9 -7 -33 -15 -53 -16 -51 -3 -93 -21
-93 -40 0 -12 14 -15 69 -15 41 0 73 -5 77 -11 7 -13 -15 -31 -29 -22 -13 8
-77 -7 -77 -17 0 -6 11 -10 25 -10 14 0 25 -5 25 -10 0 -6 -13 -9 -29 -8 -16
1 -35 -3 -43 -10 -8 -6 -29 -10 -46 -7 -18 2 -32 -1 -32 -7 0 -6 -10 -8 -25
-4 -21 5 -27 2 -35 -18 -5 -14 -23 -37 -39 -52 -20 -18 -28 -31 -22 -38 6 -7
3 -19 -9 -33 -18 -22 -18 -22 -23 -2 -5 17 -9 19 -26 9 -12 -6 -21 -17 -21
-25 0 -8 -4 -15 -10 -15 -18 0 -11 -30 8 -30 10 -1 6 -6 -13 -14 -16 -8 -36
-23 -43 -35 -7 -11 -21 -21 -32 -21 -13 0 -22 -9 -26 -25 -7 -27 -24 -34 -24
-10 0 8 -6 15 -14 15 -22 0 -28 -17 -9 -24 14 -6 14 -9 -6 -27 -16 -15 -29
-19 -50 -14 -17 3 -32 2 -36 -4 -3 -6 -1 -11 4 -11 6 0 11 -12 11 -26 0 -20
-4 -25 -16 -20 -22 9 -44 -11 -44 -40 0 -17 -4 -22 -15 -18 -8 4 -15 14 -16
23 0 9 -3 11 -6 4 -7 -17 -43 6 -36 24 7 18 -12 17 -27 -2 -7 -8 -23 -15 -36
-15 -31 0 -39 -17 -18 -41 16 -18 16 -19 -4 -19 -11 0 -23 4 -26 9 -9 14 -46
1 -46 -16 0 -9 6 -13 13 -10 8 3 20 1 28 -5 11 -8 11 -9 -3 -5 -9 3 -19 1 -22
-6 -3 -9 -7 -8 -15 3 -9 13 -12 12 -24 -4 -10 -13 -16 -15 -21 -8 -4 7 -5 15
-3 20 3 4 -7 8 -21 8 -15 1 -21 -1 -14 -3 6 -3 9 -9 6 -15 -3 -5 2 -16 12 -23
18 -14 18 -14 -1 -15 -11 -1 -31 -3 -45 -6 -19 -3 -21 -2 -10 5 24 16 4 23
-34 13 -36 -10 -52 -1 -55 33 0 6 -27 11 -60 12 -55 3 -59 1 -54 -17 3 -11 14
-20 24 -20 11 0 19 -4 19 -10 0 -5 -13 -10 -29 -10 -31 0 -70 -26 -75 -50 -2
-8 -7 -23 -11 -34 -5 -11 -3 -21 4 -25 7 -5 11 -21 9 -37 -2 -19 1 -28 10 -27
13 3 16 -9 6 -20 -3 -3 -16 5 -29 19 -12 13 -30 24 -39 24 -18 0 -22 25 -6 35
6 4 5 11 -3 20 -10 9 -13 36 -11 97 9 211 23 249 140 366 45 45 80 82 78 82
-4 0 -48 -26 -69 -42 -5 -4 -32 -26 -59 -49 -27 -23 -59 -45 -71 -51 -12 -5
-30 -24 -41 -41 -23 -39 -64 -154 -64 -182 0 -11 -7 -33 -15 -49 -8 -15 -15
-37 -15 -47 0 -10 -5 -21 -11 -24 -6 -4 -8 -13 -5 -21 3 -7 0 -16 -5 -20 -6
-3 -9 -15 -6 -25 3 -10 1 -22 -5 -25 -5 -3 -7 -17 -4 -29 3 -13 2 -26 -3 -30
-5 -3 -8 -37 -6 -76 3 -60 1 -73 -16 -87 -23 -20 -26 -54 -4 -46 12 5 15 -2
15 -32 0 -20 -6 -45 -14 -53 -7 -9 -16 -47 -19 -85 -2 -39 -10 -72 -17 -76 -7
-4 -10 -12 -6 -18 3 -6 1 -14 -5 -17 -6 -4 -8 -17 -5 -30 4 -15 1 -25 -9 -29
-8 -3 -12 -12 -9 -21 3 -8 10 -12 15 -9 5 3 9 -2 9 -11 0 -10 -5 -13 -12 -9
-8 5 -9 0 -5 -15 3 -15 0 -24 -9 -28 -8 -3 -13 -12 -10 -19 3 -7 -2 -17 -10
-22 -14 -8 -14 -10 0 -21 11 -9 20 -10 36 -1 11 6 25 8 30 5 19 -12 0 -23 -51
-30 -55 -8 -64 -30 -11 -29 18 1 32 -3 32 -7 0 -5 -13 -9 -30 -9 -16 0 -31 -4
-31 -10 -1 -5 -3 -14 -4 -20 -1 -5 -3 -17 -4 -26 0 -8 -5 -13 -10 -10 -13 8
-34 -21 -27 -39 4 -10 -1 -15 -14 -15 -24 0 -26 -15 -4 -24 22 -8 6 -28 -17
-21 -11 4 -19 2 -19 -4 0 -6 6 -11 13 -11 15 0 20 -39 8 -55 -5 -5 -6 -25 -4
-42 4 -24 11 -33 24 -33 23 0 45 -36 26 -43 -6 -2 6 -4 28 -4 22 1 52 -2 67
-6 25 -6 26 -10 16 -27 -7 -10 -15 -17 -19 -14 -10 6 -30 -31 -27 -48 2 -9 -8
-12 -34 -10 -28 2 -38 -1 -38 -12 0 -8 6 -16 13 -19 18 -7 -7 -30 -35 -32 -15
-1 -22 -8 -20 -19 2 -9 -2 -16 -7 -16 -5 0 -11 -10 -13 -22 -2 -17 -9 -22 -25
-20 -15 2 -23 -2 -23 -11 0 -8 -6 -17 -14 -20 -11 -5 -13 31 -10 211 3 135 1
209 -5 196 -5 -11 -10 -79 -10 -150 -1 -107 -9 -348 -12 -349 -6 -2 -10 -60
-10 -140 0 -172 44 -456 92 -590 6 -16 15 -48 19 -70 13 -62 30 -135 42 -185
37 -153 49 -287 33 -359 -21 -91 -48 -342 -43 -396 9 -92 29 -220 38 -236 5
-9 12 -34 16 -54 4 -21 13 -50 20 -64 8 -14 14 -36 14 -49 0 -12 4 -30 10 -40
19 -34 60 -249 70 -367 6 -66 15 -174 20 -240 8 -92 7 -155 -4 -270 -8 -82
-17 -213 -21 -290 -3 -77 -11 -169 -16 -205 -6 -36 -13 -76 -15 -90 -2 -14 -8
-101 -14 -195 -5 -93 -14 -237 -20 -320 -16 -211 -16 -602 0 -649 11 -34 13
-36 26 -19 7 10 14 14 14 8 0 -5 4 -4 8 2 10 16 112 26 132 13 8 -5 21 -5 31
0 12 7 21 5 29 -5 8 -9 21 -13 31 -10 11 4 19 2 19 -4 0 -6 5 -11 10 -11 6 0
9 3 9 7 -3 20 3 23 21 13 11 -6 20 -20 20 -31 0 -11 5 -17 10 -14 6 4 8 11 5
16 -4 5 4 9 15 9 16 0 20 -5 16 -15 -3 -9 0 -15 10 -15 8 0 19 -11 26 -24 13
-30 65 -41 126 -28 25 6 44 6 48 1 3 -5 14 -5 25 1 11 6 25 8 31 4 6 -4 8 -3
5 3 -10 15 62 12 92 -3 29 -15 47 -8 31 11 -13 15 -7 20 37 29 17 4 34 14 37
22 7 18 26 18 26 0 0 -8 6 -16 13 -19 8 -3 14 -21 15 -40 1 -29 -3 -36 -23
-41 -14 -4 -25 -13 -25 -21 0 -8 -4 -15 -10 -15 -5 0 -10 -5 -10 -11 0 -6 -10
-19 -22 -29 -19 -15 -20 -20 -9 -34 12 -14 9 -16 -28 -16 -33 0 -41 -4 -41
-18 0 -20 -45 -46 -61 -37 -5 3 -21 -6 -36 -20 -29 -27 -143 -90 -143 -79 0 4
-16 -5 -35 -20 -19 -14 -38 -26 -42 -25 -22 4 -35 -2 -30 -14 4 -10 -10 -17
-45 -25 -27 -7 -58 -12 -69 -12 -10 0 -19 -4 -19 -10 0 -5 -13 -10 -29 -10
-17 0 -31 -6 -35 -16 -4 -10 -12 -14 -22 -10 -18 7 -43 -13 -37 -30 2 -6 -3
-17 -12 -24 -8 -7 -15 -21 -15 -31 0 -10 -4 -20 -9 -24 -6 -3 -13 -26 -17 -50
-3 -25 -10 -48 -15 -51 -5 -3 -9 -18 -9 -33 0 -15 -3 -31 -7 -35 -8 -8 -43
-115 -43 -134 0 -10 161 -12 788 -10 l787 3 4 30 c3 26 4 28 11 10 7 -17 9
-17 9 -2 1 9 -8 36 -18 60 -11 23 -21 67 -24 97 -2 30 -2 46 0 36 4 -15 7 -16
13 -6 6 9 2 18 -8 26 -12 8 -16 23 -13 49 2 25 -1 35 -8 31 -6 -4 -11 0 -11 8
0 10 6 13 15 10 8 -4 15 -1 15 5 0 7 -7 14 -15 17 -8 4 -15 13 -15 21 0 8 5
11 10 8 6 -3 10 -2 10 4 0 5 -5 13 -10 16 -6 4 -10 21 -10 38 1 123 -10 307
-19 330 -14 36 -14 40 1 31 7 -5 9 -2 5 9 -3 9 -2 30 3 48 7 25 6 37 -5 49 -8
9 -15 22 -15 28 0 6 -8 9 -17 6 -16 -5 -16 -4 1 10 11 9 15 19 10 28 -5 7 -7
21 -6 30 2 10 -2 18 -7 18 -6 0 -11 5 -11 11 0 5 5 7 10 4 6 -3 10 3 10 15 0
12 -4 18 -10 15 -11 -7 -14 67 -3 78 3 4 12 -1 19 -11 12 -16 13 -16 14 0 0 9
6 19 13 21 9 4 9 7 0 14 -9 6 -2 13 23 22 26 9 39 10 47 2 8 -8 8 -11 -1 -11
-7 0 -12 -7 -12 -15 0 -18 14 -19 41 -5 20 11 28 -3 9 -15 -8 -5 -7 -11 1 -21
9 -11 9 -17 0 -28 -9 -11 -9 -16 0 -21 8 -6 7 -10 -2 -16 -11 -7 -10 -11 5
-22 17 -12 17 -16 5 -29 -7 -8 -21 -13 -31 -10 -28 7 -21 -7 10 -19 24 -9 25
-11 9 -20 -9 -6 -15 -15 -12 -20 4 -5 11 -7 16 -4 5 4 9 -3 9 -15 0 -12 -4
-18 -10 -15 -5 3 -10 0 -10 -8 0 -8 6 -17 14 -20 15 -6 11 -53 -7 -74 -6 -9
-6 -18 2 -27 9 -11 10 -25 3 -50 -7 -25 -7 -37 1 -40 9 -4 9 -8 -1 -12 -9 -4
-11 -20 -6 -56 5 -37 3 -52 -7 -59 -11 -7 -11 -11 -1 -17 7 -5 10 -16 6 -25
-3 -10 -1 -17 6 -17 6 0 8 -5 4 -12 -4 -7 -6 -34 -5 -60 2 -32 -2 -48 -9 -48
-9 0 -9 -4 -3 -13 6 -6 10 -27 9 -45 0 -19 3 -36 7 -39 4 -3 3 -11 -3 -18 -8
-9 -8 -15 0 -20 5 -3 10 -15 10 -26 0 -11 -4 -17 -10 -14 -5 3 -10 -1 -10 -9
0 -9 5 -16 10 -16 6 0 10 -5 10 -11 0 -5 -5 -7 -11 -3 -7 4 -9 -1 -7 -12 2
-11 -3 -25 -12 -32 -10 -10 -11 -11 -1 -6 10 5 13 3 8 -9 -3 -8 0 -21 8 -27 9
-7 14 -29 13 -56 -1 -44 6 -63 18 -51 3 3 6 46 5 94 -2 156 0 556 3 618 2 33
4 86 4 118 2 60 17 76 28 29 4 -15 12 -33 18 -41 8 -11 8 -15 0 -18 -7 -2 -10
-12 -7 -22 3 -10 0 -22 -6 -25 -7 -5 -9 0 -5 11 5 17 5 17 -6 0 -9 -14 -9 -22
1 -33 9 -11 9 -18 1 -26 -7 -7 -12 -15 -12 -20 0 -4 11 4 25 17 27 28 45 32
45 10 0 -8 -7 -15 -15 -15 -20 0 -19 -9 2 -33 17 -18 17 -19 -20 -12 -35 7
-37 6 -37 -19 0 -20 4 -24 18 -19 14 5 15 3 5 -8 -21 -21 -15 -29 12 -17 26
12 49 3 27 -11 -9 -5 -10 -15 -4 -31 7 -19 10 -20 15 -7 5 13 10 14 31 4 31
-14 34 -27 7 -27 -15 0 -19 -5 -16 -21 4 -17 2 -19 -11 -8 -18 15 -29 6 -19
-18 4 -10 9 -30 10 -46 2 -25 0 -27 -34 -27 -28 -1 -32 -3 -20 -10 10 -6 35
-6 63 -1 25 5 46 5 46 1 0 -5 -5 -10 -11 -12 -7 -2 -7 -12 0 -32 10 -24 9 -28
-9 -33 -20 -5 -28 -23 -11 -23 11 0 43 -61 36 -68 -2 -3 -12 1 -21 9 -14 11
-19 10 -35 -11 -22 -30 -25 -47 -4 -30 12 10 16 9 21 -4 4 -11 14 -15 28 -11
11 2 15 2 9 -1 -7 -3 -13 -12 -13 -20 0 -8 -8 -14 -17 -14 -14 0 -15 -2 -4 -9
11 -7 11 -12 -2 -31 -15 -22 -15 -25 9 -52 13 -17 22 -34 18 -39 -3 -5 444 -8
1138 -7 l1143 3 1 100 c1 55 2 105 4 110 1 6 2 15 1 20 -1 6 -2 58 -1 116 l1
106 -33 23 c-25 16 -27 21 -11 17 15 -3 20 -1 16 9 -3 8 -2 22 2 32 8 17 9 21
20 79 7 37 -13 123 -28 123 -6 0 -7 -3 -4 -7 4 -3 1 -13 -5 -21 -7 -8 -14 -33
-15 -56 -4 -69 -9 -94 -22 -109 -6 -8 -11 -19 -10 -23 3 -19 -1 -35 -9 -30 -5
3 -7 -9 -6 -27 2 -18 1 -24 -2 -14 -11 36 -23 15 -27 -46 -4 -70 -6 33 -11
578 -2 209 -9 551 -15 760 -10 374 -17 560 -46 1245 -8 190 -17 453 -20 585
-7 310 -33 924 -45 1085 -5 69 -12 199 -15 290 -3 91 -8 198 -10 239 -2 40 -7
285 -10 545 -2 259 -7 703 -11 986 -5 465 -2 577 12 464 3 -22 9 -40 14 -42 5
-2 6 -10 3 -18 -3 -8 0 -14 6 -14 6 0 11 -8 12 -17 0 -10 5 -4 10 12 5 17 12
134 14 260 3 127 7 257 11 290 5 55 29 115 45 115 4 0 5 12 3 28 -3 15 -6 70
-8 124 -3 53 -9 105 -15 116 -11 21 -5 52 10 52 4 0 2 21 -6 48 -8 26 -18 89
-21 140 -6 79 -5 92 8 92 13 0 16 18 20 90 3 63 9 95 19 106 14 13 19 9 46
-43 60 -113 67 -123 88 -121 14 2 25 -7 38 -33 15 -31 16 -44 6 -89 -16 -76
-7 -130 30 -181 17 -24 58 -83 91 -131 33 -47 64 -89 70 -93 5 -3 42 -49 82
-102 145 -189 167 -218 208 -264 16 -19 30 -29 30 -23 0 6 -11 23 -25 38 -42
45 -82 110 -77 125 3 8 0 11 -7 7 -14 -9 -14 0 1 27 10 19 9 20 -4 9 -13 -10
-16 -9 -21 10 -4 12 -4 24 -2 27 6 6 55 -47 55 -60 0 -5 5 -9 10 -9 6 0 10 7
10 15 0 8 -3 15 -7 15 -5 0 -24 27 -42 60 -19 33 -38 60 -42 60 -4 0 -11 9
-14 20 -3 11 -13 20 -21 20 -8 0 -13 4 -10 9 7 11 -23 71 -35 71 -6 0 -8 4 -5
9 4 5 1 11 -6 13 -17 6 0 28 23 28 10 0 19 -7 19 -15 0 -8 7 -15 15 -15 8 0
15 -7 15 -15 0 -8 7 -15 15 -15 18 0 19 -12 3 -28 -9 -9 -6 -12 15 -12 15 0
27 2 27 5 0 6 -49 62 -105 120 -51 52 -85 100 -85 120 0 8 -5 15 -11 15 -5 0
-7 5 -4 10 3 6 2 10 -2 10 -5 0 -10 12 -11 26 -1 15 -6 32 -11 38 -18 24 -19
71 -1 108 13 27 17 55 15 102 -2 48 1 68 12 77 10 9 12 25 8 64 -9 66 9 137
31 128 13 -5 15 -2 9 17 -4 13 -7 41 -7 64 1 22 -3 45 -8 51 -20 25 -50 87
-50 104 0 23 -26 88 -39 95 -5 4 -12 21 -16 39 -7 34 -39 125 -54 154 -5 10
-15 38 -21 63 -7 25 -18 65 -26 90 -7 25 -20 88 -28 140 -47 290 -86 471 -108
495 -6 7 -9 7 -7 0z m-4041 -4416 c0 -5 -12 -9 -26 -9 -16 0 -24 -5 -21 -12 2
-7 13 -12 25 -10 29 4 37 -15 18 -43 -20 -30 -20 -35 -1 -35 11 0 12 -6 6 -22
-4 -13 -6 -29 -3 -37 3 -9 0 -11 -8 -6 -9 5 -10 2 -5 -15 4 -13 9 -47 10 -77
2 -30 9 -61 16 -69 9 -11 9 -18 1 -26 -8 -8 -6 -17 5 -34 8 -13 12 -28 8 -35
-4 -6 -3 -14 2 -18 6 -3 13 -23 16 -43 5 -36 4 -38 -26 -46 -21 -5 -33 -15
-34 -28 -2 -10 0 -13 3 -6 8 16 33 15 40 -2 3 -8 1 -23 -5 -34 -9 -17 -7 -21
14 -26 16 -4 25 -13 25 -26 0 -17 14 -33 33 -36 4 -1 10 -2 13 -3 4 0 1 -8 -7
-17 -7 -8 -21 -13 -30 -11 -26 7 -30 -17 -7 -37 16 -14 18 -24 13 -59 -4 -23
-12 -44 -17 -45 -5 -3 -5 -9 0 -15 14 -19 23 -49 12 -42 -6 3 -10 -3 -10 -14
0 -15 -6 -21 -22 -20 -13 0 -17 3 -10 6 8 3 9 9 4 16 -16 22 -35 95 -28 112 3
9 2 13 -4 10 -6 -3 -10 0 -10 9 0 8 -3 22 -6 30 -5 12 -2 15 11 10 13 -5 16
-3 13 7 -3 8 -11 14 -19 14 -9 0 -17 18 -22 53 -5 30 -12 51 -15 47 -6 -6 -27
83 -38 161 -8 62 -10 173 -2 168 4 -2 9 0 13 6 3 5 -1 10 -9 10 -28 0 -17 20
12 21 23 2 24 2 5 6 -24 5 -32 23 -10 23 14 0 17 67 4 88 -5 6 -5 12 0 12 4 0
9 11 9 25 1 14 -2 25 -7 25 -5 0 -7 10 -4 23 3 12 7 36 9 52 2 17 4 30 5 30 1
0 15 0 31 1 17 1 30 -3 30 -7z m85 -1589 c-3 -4 5 -10 16 -13 16 -4 19 -10 14
-28 -4 -13 -2 -24 5 -29 8 -5 10 -15 5 -26 -5 -11 -7 -26 -6 -34 5 -40 12 -60
21 -55 6 4 44 -7 68 -21 10 -5 -12 -30 -29 -31 -12 -1 -26 -8 -32 -16 -18 -22
-77 -28 -77 -8 0 12 -2 13 -9 3 -11 -17 -24 0 -41 53 -28 86 -44 243 -21 206
6 -10 15 -9 42 2 34 14 54 13 44 -3z m1463 -1886 c26 -17 27 -23 7 -50 -8 -12
-12 -24 -8 -27 10 -11 23 3 23 24 0 15 7 19 33 18 29 -1 29 -2 8 -8 -34 -9
-37 -27 -6 -35 26 -7 34 -24 13 -30 -54 -16 -54 -17 -35 -30 26 -20 21 -24
-29 -32 -27 -4 -41 -10 -34 -14 7 -4 9 -13 6 -19 -10 -16 17 -14 40 4 23 17
34 19 34 5 0 -5 -7 -10 -15 -10 -8 0 -15 -4 -15 -10 0 -5 -5 -10 -11 -10 -11
0 -39 -25 -39 -35 0 -3 10 1 22 9 12 9 31 16 42 16 18 0 18 -1 3 -18 -18 -20
-7 -42 23 -43 11 0 9 -4 -7 -16 -13 -8 -23 -23 -23 -32 0 -9 -5 -22 -10 -27
-8 -8 1 -22 30 -47 46 -43 50 -52 15 -43 -31 8 -32 -6 -2 -28 14 -11 18 -19
10 -22 -7 -3 -9 -12 -7 -19 4 -9 -3 -16 -20 -21 -29 -7 -60 21 -72 64 -3 12
-13 22 -21 22 -8 0 -12 4 -8 10 3 5 13 6 22 3 11 -4 14 -2 11 8 -3 8 -11 13
-18 11 -9 -2 -10 5 -6 23 4 14 2 35 -4 46 -9 15 -8 24 1 35 8 9 8 14 1 14 -6
0 -9 7 -6 15 4 9 0 15 -7 15 -12 0 -12 2 0 9 9 6 10 10 2 16 -9 5 -9 10 -1 20
14 17 8 64 -11 76 -8 5 -10 9 -6 9 5 0 5 6 0 13 -17 28 -14 55 9 61 22 6 22 7
-10 27 -30 20 -32 23 -17 39 8 9 15 22 15 28 0 15 44 6 78 -14z m42 -705 c0
-5 8 -9 18 -9 9 0 29 -11 43 -24 24 -21 26 -28 19 -64 -5 -29 -4 -45 5 -52 9
-8 14 -5 18 9 3 11 0 22 -7 25 -6 2 -3 5 7 5 12 1 17 -7 17 -29 l0 -31 -52 7
c-56 7 -108 31 -108 49 0 23 27 48 45 42 13 -6 16 -3 11 9 -3 8 -6 20 -6 24 0
5 -12 15 -27 22 -36 17 -41 37 -8 31 14 -3 25 -9 25 -14z"/>
</g>
</svg>
