<svg id="visual" viewBox="0 0 861 667" width="861" height="667" xmlns="http://www.w3.org/2000/svg" xmlns:xlink="http://www.w3.org/1999/xlink" version="1.1"><rect x="0" y="0" width="861" height="667" fill="#FFFFFF"></rect><defs><linearGradient id="grad1_0" x1="22.5%" y1="100%" x2="100%" y2="0%"><stop offset="24.182908545727138%" stop-color="#ffffff" stop-opacity="1"></stop><stop offset="75.81709145427286%" stop-color="#ffffff" stop-opacity="1"></stop></linearGradient></defs><defs><linearGradient id="grad2_0" x1="0%" y1="100%" x2="77.5%" y2="0%"><stop offset="24.182908545727138%" stop-color="#ffffff" stop-opacity="1"></stop><stop offset="75.81709145427286%" stop-color="#ffffff" stop-opacity="1"></stop></linearGradient></defs><g transform="translate(861, 667)"><path d="M-136.1 0C-128.2 -21.2 -120.3 -42.3 -110 -63.5C-99.6 -84.7 -86.8 -105.8 -68.1 -117.9C-49.3 -130 -24.7 -133.1 0 -136.1L0 0Z" fill="#04143E"></path></g><g transform="translate(0, 0)"><path d="M136.1 0C129.2 21.7 122.2 43.4 111.7 64.5C101.2 85.6 87.3 106.1 68.1 117.9C48.9 129.7 24.4 132.9 0 136.1L0 0Z" fill="#04143E"></path></g></svg>