<svg id="visual" viewBox="0 0 1300 600" width="1300" height="600" xmlns="http://www.w3.org/2000/svg" xmlns:xlink="http://www.w3.org/1999/xlink" version="1.1"><rect x="0" y="0" width="1300" height="600" fill="#FFFFFF"></rect><path d="M0 499L31 486.5C62 474 124 449 185.8 433.8C247.7 418.7 309.3 413.3 371.2 423.3C433 433.3 495 458.7 557 468.5C619 478.3 681 472.7 743 468.7C805 464.7 867 462.3 928.8 465.8C990.7 469.3 1052.3 478.7 1114.2 488.5C1176 498.3 1238 508.7 1269 513.8L1300 519L1300 601L1269 601C1238 601 1176 601 1114.2 601C1052.3 601 990.7 601 928.8 601C867 601 805 601 743 601C681 601 619 601 557 601C495 601 433 601 371.2 601C309.3 601 247.7 601 185.8 601C124 601 62 601 31 601L0 601Z" fill="#022E81" stroke-linecap="round" stroke-linejoin="miter"></path></svg>